Coordinates
version=1
nRows=21
nColumns=12
inDegrees=yes

Units are S.I. units (second, meters, Newtons, ...)
Angles are in degrees

endheader
time	SC_y	SC_z	SC_x	AC_y	AC_z	AC_x	GH_y	GH_z	GH_yy	EL_x	PS_y
       0.0              -36.16          12.34          74.32          55.32          -10.7        -0.5719          117.2          36.09         -119.2          101.3          32.02
 0.0002867              -36.16          12.34          74.32          55.32          -10.7        -0.5721          117.2          36.09         -119.1          101.3          32.02
 0.0005734              -36.16          12.33          74.32          55.32          -10.7        -0.5723          117.1           36.1         -119.1          101.3          32.02
 0.0008601              -36.16          12.33          74.32          55.32          -10.7        -0.5725          117.1           36.1         -119.1          101.2          32.02
  0.001147              -36.16          12.33          74.32          55.32          -10.7        -0.5727          117.0          36.11         -119.0          101.2          32.02
  0.001434              -36.16          12.33          74.32          55.32          -10.7         -0.573          117.0          36.12         -119.0          101.2          32.02
   0.00172              -36.16          12.33          74.32          55.32          -10.7        -0.5733          116.9          36.12         -118.9          101.2          32.02
  0.002007              -36.16          12.33          74.32          55.33          -10.7        -0.5736          116.9          36.13         -118.9          101.2          32.02
  0.002294              -36.16          12.33          74.32          55.33          -10.7        -0.5739          116.8          36.14         -118.8          101.2          32.02
   0.00258              -36.16          12.33          74.32          55.33          -10.7        -0.5742          116.8          36.14         -118.8          101.2          32.02
  0.002867              -36.16          12.33          74.31          55.33          -10.7        -0.5746          116.7          36.15         -118.7          101.1          32.02
  0.003154              -36.16          12.33          74.31          55.33         -10.71         -0.575          116.6          36.16         -118.6          101.1          32.02
  0.003441              -36.16          12.33          74.31          55.33         -10.71        -0.5754          116.5          36.17         -118.5          101.1          32.02
  0.003727              -36.16          12.32          74.31          55.33         -10.71        -0.5758          116.4          36.18         -118.5          101.1          32.02
  0.004014              -36.16          12.32          74.31          55.34         -10.71        -0.5763          116.3          36.19         -118.4          101.1          32.02
  0.004301              -36.16          12.32          74.31          55.34         -10.71        -0.5768          116.2          36.21         -118.3          101.0          32.02
  0.004587              -36.17          12.32           74.3          55.34         -10.71        -0.5774          116.1          36.22         -118.2          101.0          32.02
  0.004874              -36.17          12.32           74.3          55.34         -10.71         -0.578          116.0          36.23         -118.1          101.0          32.02
  0.005161              -36.17          12.32           74.3          55.34         -10.71        -0.5787          115.9          36.25         -118.0          101.0          32.02
  0.005448              -36.17          12.31           74.3          55.35         -10.72        -0.5795          115.7          36.27         -117.8          100.9          32.02
  0.005734              -36.17          12.31          74.29          55.35         -10.72        -0.5803          115.6          36.29         -117.7          100.9          32.02
